<svg id="Слой_1" data-name="Слой 1" xmlns="http://www.w3.org/2000/svg" viewBox="0 0 85.11 81.19"><defs><style>.cls-1{fill:none;stroke:#432918;stroke-miterlimit:10;stroke-width:3px;}</style></defs><path class="cls-1" d="M76.71,64.31c-.42.2-8.83-6-10.27-7a.85.85,0,0,0-.48-.17C64.26,57,64,57,61.49,56.85,49.51,56,39.75,49.76,39.75,41S49.48,25.2,61.49,25.2,83.23,32.29,83.23,41a14.67,14.67,0,0,1-5.87,11.9,1.17,1.17,0,0,0-.49,1C76.92,56.18,77.07,64.15,76.71,64.31Z"/><path class="cls-1" d="M44.88,29.77C42.51,23.25,34.38,17.66,24.76,17c-12-.88-22.2,5.47-22.84,14.18a14.67,14.67,0,0,0,5,12.3,1.14,1.14,0,0,1,.43,1c-.22,2.28-1,10.22-.61,10.41S16,49.53,17.46,48.59a.88.88,0,0,1,.5-.14c1.7,0,1.95.06,4.48.06,6.38,0,13.11-1.84,17.31-4.6"/></svg>