<svg id="Слой_1" data-name="Слой 1" xmlns="http://www.w3.org/2000/svg" viewBox="0 0 57.66 54.46"><defs><style>.cls-1{fill:none;stroke:#432918;stroke-miterlimit:10;stroke-width:4px;}.cls-2{fill:#432918;}</style></defs><rect class="cls-1" x="2.38" y="2.33" width="52.85" height="49.8" rx="6.48"/><path class="cls-2" d="M44.39,29.66H37.6c0,7.52,0,13.94,0,21.39H31.15V29.67h-5c0-1.16,0-4.33,0-5.49,1.65,0,3.23,0,5.09,0,0-1.78,0-2.62,0-4.35a11,11,0,0,1,.26-2.19c1-4.36,5.08-7.49,10.89-7.13a30.79,30.79,0,0,1,6.13,1c-.44,1.28-1.14,4-1.42,5.13a18.71,18.71,0,0,0-3.11-.5c-3.39,0-5.56,1.11-6.26,3.35a4.57,4.57,0,0,0-.14,1.38c0,1.38,0,1.88,0,3.37H45.4"/></svg>