<svg id="Слой_1" data-name="Слой 1" xmlns="http://www.w3.org/2000/svg" viewBox="0 0 57.66 54.46"><defs><style>.cls-1{fill:none;stroke:#432918;stroke-miterlimit:10;stroke-width:3px;}.cls-2{fill:#432918;}</style></defs><path class="cls-1" d="M20.09,48.81,16.6,33.7,6.89,28.48a4.75,4.75,0,0,1,.78-8.18L46.07,2c4.11-1.16,6.71.43,6.69,4.76L47.33,48.51a4.75,4.75,0,0,1-7.47,3.42L29.39,42.54a.74.74,0,0,0-.92-.09l-8,6.45A.2.2,0,0,1,20.09,48.81Z"/><path class="cls-2" d="M44.79,11.3S28.12,29.48,22.86,35.49a.73.73,0,0,0-.17.34L20.67,49a.35.35,0,0,1-.68,0l-3.6-13.31a.19.19,0,0,0,0-.08L15,31.55a.35.35,0,0,1,.12-.47L44.34,10.77A.35.35,0,0,1,44.79,11.3Z"/></svg>